<?xml version="1.0" encoding="UTF-8" standalone="no"?>
<!DOCTYPE svg PUBLIC "-//W3C//DTD SVG 1.1//EN" "http://www.w3.org/Graphics/SVG/1.1/DTD/svg11.dtd">
<svg width="100%" height="100%" viewBox="0 0 966 170" version="1.1" xmlns="http://www.w3.org/2000/svg" xmlns:xlink="http://www.w3.org/1999/xlink" xml:space="preserve" xmlns:serif="http://www.serif.com/" style="fill-rule:evenodd;clip-rule:evenodd;">
    <g transform="matrix(1.06559,1.84566,-1.84566,1.06559,25667.6,-100527)">
        <path d="M34877.6,33974.2C34877.7,33972.9 34878.8,33972 34880,33972C34881.2,33972 34882.3,33972.9 34882.4,33974.2L34884.9,33994.3C34884.9,33994.9 34885.1,33995.4 34885.4,33995.9C34885.7,33996.4 34886,33996.8 34886.5,33997.1L34902.7,34009.3C34903.7,34010.1 34904,34011.4 34903.4,34012.5C34902.8,34013.6 34901.4,34014 34900.3,34013.5L34881.6,34005.6C34881.1,34005.3 34880.6,34005.2 34880,34005.2C34879.4,34005.2 34878.9,34005.3 34878.4,34005.6L34859.7,34013.5C34858.6,34014 34857.2,34013.6 34856.6,34012.5C34856,34011.4 34856.3,34010.1 34857.3,34009.3L34873.5,33997.1C34874,33996.8 34874.3,33996.4 34874.6,33995.9C34874.9,33995.4 34875.1,33994.9 34875.1,33994.3L34877.6,33974.2Z" style="fill:white;"/>
    </g>
    <g transform="matrix(0.981446,0,0,0.981442,0.233742,-0.206843)">
        <path d="M164.529,52.792L164.529,120.844C164.529,145.347 144.635,165.241 120.132,165.241L52.08,165.241C27.577,165.241 7.683,145.347 7.683,120.844L7.683,52.792C7.683,28.289 27.577,8.395 52.08,8.395L120.132,8.395C144.635,8.395 164.529,28.289 164.529,52.792Z" style="fill:none;stroke:white;stroke-width:15.18px;"/>
    </g>
    <g transform="matrix(0.341227,0,0,0.335202,242.19,124.089)">
        <path d="M110.238,-277.577L27.758,-277.577C25.378,-277.577 23.792,-275.991 23.792,-273.612L23.792,-3.965C23.792,-1.586 25.378,0 27.758,0L72.17,0C74.549,0 76.135,-1.586 76.135,-3.965L76.135,-86.842C76.135,-88.825 77.325,-90.014 79.308,-89.618C83.67,-89.618 88.032,-89.221 91.997,-89.221C143.944,-82.084 164.564,-33.706 166.15,-3.965C166.15,-1.19 167.736,0 170.115,0L210.562,0C212.941,0 214.528,-1.586 214.528,-3.965C213.338,-36.482 199.856,-77.325 168.133,-99.135C166.15,-100.721 166.15,-102.307 168.133,-103.497C196.287,-118.962 210.959,-145.53 210.959,-181.615C210.959,-240.303 169.322,-277.577 110.238,-277.577ZM76.135,-138.789L76.135,-226.424C76.135,-228.406 77.325,-229.596 79.308,-229.596L112.617,-229.596C180.029,-229.596 180.029,-135.616 109.048,-135.616L79.308,-135.616C77.325,-135.616 76.135,-136.806 76.135,-138.789Z" style="fill:white;fill-rule:nonzero;"/>
        <path d="M251.009,0L295.422,0C297.801,0 299.387,-1.586 299.387,-3.965L299.387,-194.304C299.387,-196.683 297.801,-198.27 295.422,-198.27L251.009,-198.27C248.63,-198.27 247.044,-196.683 247.044,-194.304L247.044,-3.965C247.044,-1.586 248.63,0 251.009,0ZM242.285,-248.233C242.285,-231.182 256.164,-217.303 273.215,-217.303C290.267,-217.303 304.145,-231.182 304.145,-248.233C304.145,-265.681 290.663,-279.56 273.215,-279.56C256.164,-279.56 242.285,-265.681 242.285,-248.233Z" style="fill:white;fill-rule:nonzero;"/>
        <path d="M321.99,-193.511L399.711,-3.172C400.504,-0.793 402.091,0 404.073,0L443.727,0C445.71,0 447.296,-0.793 448.089,-3.172L526.207,-193.511C527.397,-196.287 525.811,-198.27 523.035,-198.27L475.847,-198.27C473.864,-198.27 472.278,-197.476 471.485,-195.097L425.883,-75.342C425.09,-72.567 422.711,-72.567 421.917,-75.342L376.712,-195.097C375.919,-197.476 374.333,-198.27 372.35,-198.27L325.162,-198.27C322.386,-198.27 320.8,-196.287 321.99,-193.511Z" style="fill:white;fill-rule:nonzero;"/>
        <path d="M628.911,4.758C679.668,4.758 710.994,-29.344 718.132,-58.291C718.529,-59.877 716.943,-61.067 714.563,-61.464L680.857,-67.412C678.875,-67.808 677.289,-67.015 676.099,-65.032C665.789,-47.981 653.496,-36.482 628.911,-36.482C618.204,-36.482 605.515,-38.464 595.205,-47.188C593.222,-48.774 593.619,-50.757 595.602,-51.947L714.563,-121.341C716.149,-122.531 717.339,-124.117 716.943,-126.099C713.374,-168.926 672.927,-204.614 624.549,-204.614C567.447,-204.614 524.225,-159.409 524.225,-101.117C524.225,-42.43 571.413,4.758 628.911,4.758ZM574.188,-91.601C563.482,-124.117 595.205,-156.236 621.773,-159.409C640.014,-161.391 654.686,-153.857 661.824,-141.961C663.013,-139.978 662.22,-138.789 660.634,-137.599L579.343,-87.635C577.757,-86.446 575.775,-86.842 574.982,-89.221L574.188,-91.601Z" style="fill:white;fill-rule:nonzero;"/>
        <path d="M818.06,-257.75L773.648,-257.75C771.268,-257.75 769.682,-256.164 769.682,-253.785L769.682,-201.442C769.682,-199.459 768.493,-198.27 766.51,-198.27L730.425,-198.27C728.046,-198.27 726.459,-196.683 726.459,-194.304L726.459,-159.805C726.459,-157.426 728.046,-155.84 730.425,-155.84L766.51,-155.84C768.493,-155.84 769.682,-154.65 769.682,-152.668L769.682,-3.965C769.682,-1.586 771.268,0 773.648,0L818.06,0C820.439,0 822.025,-1.586 822.025,-3.965L822.025,-152.668C822.025,-154.65 823.215,-155.84 825.198,-155.84L858.11,-155.84C860.49,-155.84 862.076,-157.426 862.076,-159.805L862.076,-194.304C862.076,-196.683 860.49,-198.27 858.11,-198.27L825.198,-198.27C823.215,-198.27 822.025,-199.459 822.025,-201.442L822.025,-253.785C822.025,-256.164 820.439,-257.75 818.06,-257.75Z" style="fill:white;fill-rule:nonzero;"/>
        <path d="M973.107,-273.612L973.107,-3.965C973.107,-1.586 974.693,0 977.072,0L1122.2,0C1124.59,0 1126.17,-1.586 1126.17,-3.965L1126.17,-44.016C1126.17,-46.395 1124.59,-47.981 1122.2,-47.981L1028.62,-47.981C1026.64,-47.981 1025.45,-49.171 1025.45,-51.154L1025.45,-115.393C1025.45,-117.376 1026.64,-118.565 1028.62,-118.565L1114.28,-118.565C1116.65,-118.565 1118.24,-120.151 1118.24,-122.531L1118.24,-162.581C1118.24,-164.96 1116.65,-166.546 1114.28,-166.546L1028.62,-166.546C1026.64,-166.546 1025.45,-167.736 1025.45,-169.719L1025.45,-226.424C1025.45,-228.406 1026.64,-229.596 1028.62,-229.596L1122.2,-229.596C1124.59,-229.596 1126.17,-231.182 1126.17,-233.561L1126.17,-273.612C1126.17,-275.991 1124.59,-277.577 1122.2,-277.577L977.072,-277.577C974.693,-277.577 973.107,-275.991 973.107,-273.612Z" style="fill:white;fill-rule:nonzero;"/>
        <path d="M1289.55,0L1333.96,0C1336.34,0 1337.92,-1.586 1337.92,-3.965L1337.53,-107.859C1337.53,-162.978 1305.01,-198.27 1256.24,-198.27C1239.98,-198.27 1225.7,-192.321 1214.2,-182.408C1211.82,-180.425 1210.24,-181.218 1210.24,-183.994L1210.24,-194.304C1210.24,-196.683 1208.65,-198.27 1206.27,-198.27L1161.86,-198.27C1159.48,-198.27 1157.89,-196.683 1157.89,-194.304L1157.89,-3.965C1157.89,-1.586 1159.48,0 1161.86,0L1206.27,0C1208.65,0 1210.24,-1.586 1210.24,-3.965L1210.24,-95.962C1210.24,-124.117 1218.17,-149.892 1251.08,-149.892C1263.77,-149.892 1285.58,-145.133 1285.58,-98.342L1285.58,-3.965C1285.58,-1.586 1287.17,0 1289.55,0Z" style="fill:white;fill-rule:nonzero;"/>
        <path d="M1413.27,23.792L1389.87,58.688C1388.28,60.67 1388.68,63.05 1391.06,64.239C1463.62,101.514 1569.5,95.962 1569.5,-21.413L1569.5,-194.701C1569.5,-197.08 1567.91,-198.666 1565.54,-198.666L1521.12,-198.27C1518.74,-198.27 1517.16,-196.683 1517.16,-194.304L1517.16,-183.201C1517.16,-180.425 1515.57,-179.632 1513.19,-181.218C1498.12,-193.908 1478.3,-201.838 1456.49,-201.838C1404.14,-201.838 1361.71,-152.668 1361.71,-96.756C1361.71,-40.844 1404.14,4.758 1456.49,4.758C1478.3,4.758 1498.12,-2.379 1513.19,-14.275C1515.57,-15.862 1517.16,-15.862 1517.16,-14.275C1517.16,45.602 1456.49,51.947 1418.82,22.999C1416.83,21.017 1414.85,21.81 1413.27,23.792ZM1407.71,-96.359C1407.71,-125.703 1432.3,-151.874 1461.64,-151.874C1491.78,-151.874 1517.16,-125.703 1517.16,-96.359C1517.16,-67.015 1491.78,-40.447 1461.64,-40.447C1432.3,-40.447 1407.71,-67.015 1407.71,-96.359Z" style="fill:white;fill-rule:nonzero;"/>
        <path d="M1609.95,0L1654.36,0C1656.74,0 1658.33,-1.586 1658.33,-3.965L1658.33,-194.304C1658.33,-196.683 1656.74,-198.27 1654.36,-198.27L1609.95,-198.27C1607.57,-198.27 1605.98,-196.683 1605.98,-194.304L1605.98,-3.965C1605.98,-1.586 1607.57,0 1609.95,0ZM1601.22,-248.233C1601.22,-231.182 1615.1,-217.303 1632.15,-217.303C1649.21,-217.303 1663.09,-231.182 1663.09,-248.233C1663.09,-265.681 1649.6,-279.56 1632.15,-279.56C1615.1,-279.56 1601.22,-265.681 1601.22,-248.233Z" style="fill:white;fill-rule:nonzero;"/>
        <path d="M1826.46,0L1870.87,0C1873.25,0 1874.84,-1.586 1874.84,-3.965L1874.44,-107.859C1874.44,-162.978 1841.92,-198.27 1793.15,-198.27C1776.89,-198.27 1762.62,-192.321 1751.12,-182.408C1748.74,-180.425 1747.15,-181.218 1747.15,-183.994L1747.15,-194.304C1747.15,-196.683 1745.57,-198.27 1743.18,-198.27L1698.77,-198.27C1696.39,-198.27 1694.81,-196.683 1694.81,-194.304L1694.81,-3.965C1694.81,-1.586 1696.39,0 1698.77,0L1743.18,0C1745.57,0 1747.15,-1.586 1747.15,-3.965L1747.15,-95.962C1747.15,-124.117 1755.08,-149.892 1787.99,-149.892C1800.68,-149.892 1822.49,-145.133 1822.49,-98.342L1822.49,-3.965C1822.49,-1.586 1824.08,0 1826.46,0Z" style="fill:white;fill-rule:nonzero;"/>
        <path d="M2003.32,4.758C2054.07,4.758 2085.4,-29.344 2092.54,-58.291C2092.93,-59.877 2091.35,-61.067 2088.97,-61.464L2055.26,-67.412C2053.28,-67.808 2051.69,-67.015 2050.5,-65.032C2040.19,-47.981 2027.9,-36.482 2003.32,-36.482C1992.61,-36.482 1979.92,-38.464 1969.61,-47.188C1967.63,-48.774 1968.02,-50.757 1970.01,-51.947L2088.97,-121.341C2090.55,-122.531 2091.74,-124.117 2091.35,-126.099C2087.78,-168.926 2047.33,-204.614 1998.95,-204.614C1941.85,-204.614 1898.63,-159.409 1898.63,-101.117C1898.63,-42.43 1945.82,4.758 2003.32,4.758ZM1948.59,-91.601C1937.89,-124.117 1969.61,-156.236 1996.18,-159.409C2014.42,-161.391 2029.09,-153.857 2036.23,-141.961C2037.42,-139.978 2036.62,-138.789 2035.04,-137.599L1953.75,-87.635C1952.16,-86.446 1950.18,-86.842 1949.39,-89.221L1948.59,-91.601Z" style="fill:white;fill-rule:nonzero;"/>
    </g>
</svg>
